<svg width="134" height="48" viewBox="0 0 134 48" fill="none" xmlns="http://www.w3.org/2000/svg"><path d="M68 43.97a10.21 10.21 0 01-5.92 1.8c-1.5-.04-2.86-.31-4.05-.81a9.16 9.16 0 01-3.02-2.1 9.3 9.3 0 01-1.87-3.05 10.25 10.25 0 01-.65-3.66c0-1.94.4-3.65 1.17-5.14a8.82 8.82 0 013.25-3.51 9.25 9.25 0 014.88-1.27c1.28 0 2.42.17 3.4.52 1 .34 1.8.71 2.42 1.11l-1.48 3.56c-.43-.33-1.01-.66-1.74-1.01a5.34 5.34 0 00-5.2.26 6.15 6.15 0 00-2.78 5.27c0 1.23.24 2.31.7 3.25a5.23 5.23 0 002 2.15 5.8 5.8 0 003.05.78 6.33 6.33 0 004.28-1.53L68 43.97zM71.18 25.06h3.63v20.5h-3.63v-20.5zM78.56 34.2h3.63v11.35h-3.63V34.2zm-.08-4.03c0-.53.2-.97.62-1.32.44-.35.9-.52 1.38-.52.48 0 .93.17 1.32.52.42.35.63.79.63 1.32 0 .54-.21.98-.63 1.33-.4.33-.84.5-1.32.5-.49 0-.94-.17-1.38-.5a1.65 1.65 0 01-.62-1.32zM95.58 44.54a7.1 7.1 0 01-4.1 1.32c-1.95 0-3.5-.52-4.68-1.58-1.16-1.06-1.74-2.53-1.74-4.42a5.65 5.65 0 013.1-5.27c.92-.47 1.9-.7 2.92-.7s1.9.14 2.65.42a6.4 6.4 0 011.95 1.09l-1.77 2.33c-.24-.19-.58-.38-1.01-.57-.42-.2-.9-.3-1.48-.3-.74 0-1.39.28-1.92.85-.54.55-.8 1.27-.8 2.15 0 .85.27 1.57.82 2.16a3 3 0 002.26.88c.8 0 1.46-.21 1.98-.65l1.82 2.29zM98.37 45.55v-20.5H102V37.9l5.4-3.97 2.22 1.94-4.03 3.04 4.44 6.65h-4.23l-2.78-4.72-1.02.75v3.97h-3.63zM116.24 45.79c-.94 0-1.81-.17-2.63-.5a5.77 5.77 0 01-2.02-1.37l1.5-2c.56.5 1.07.86 1.54 1.09.48.2.91.3 1.3.3.45 0 .82-.06 1.11-.2.3-.14.44-.36.44-.67 0-.3-.12-.53-.36-.7a2.62 2.62 0 00-.88-.42l-1.17-.37a4.37 4.37 0 01-2.26-1.42 3.54 3.54 0 01-.24-3.8c.32-.58.8-1.07 1.46-1.45.67-.4 1.54-.6 2.6-.6.95 0 1.75.1 2.41.29.66.19 1.28.5 1.87.93l-1.37 2.13a4.7 4.7 0 00-1.12-.65c-.4-.19-.77-.3-1.12-.3a1.7 1.7 0 00-1.09.25c-.26.17-.39.38-.39.62-.02.33.1.6.37.78.27.2.62.34 1.03.45.42.1.83.22 1.22.36.82.28 1.47.67 1.95 1.2.49.5.73 1.17.73 2.02a3.85 3.85 0 01-2.16 3.45c-.7.39-1.61.58-2.72.58z" fill="#3AB8EB"/><path d="M69.74.43v19.12h-3.77V11.8h-8.54v7.76h-3.77V.43h3.77v7.72h8.54V.43h3.77zM78.85 19.86c-1.06 0-2.02-.2-2.89-.62a4.83 4.83 0 01-2.02-1.97c-.5-.89-.76-2.01-.76-3.38 0-1.28.26-2.39.78-3.33a5.6 5.6 0 014.76-2.93 4.8 4.8 0 012.54.55c.59.36 1.06.76 1.4 1.19l.24-1.17h3.37v11.35h-3.63v-1.4c-.17.17-.43.4-.78.68a4.73 4.73 0 01-3.01 1.03zm1.03-2.96c1.27 0 2.19-.57 2.76-1.71V12.4c-.21-.55-.57-1-1.1-1.33a3.2 3.2 0 00-1.79-.49c-.77 0-1.45.3-2.02.88a3.02 3.02 0 00-.86 2.24 3.24 3.24 0 001.5 2.78c.48.27.98.41 1.51.41zM97.14 19.86c-.64 0-1.28-.1-1.92-.33a4.53 4.53 0 01-1.59-1.02v6.5h-3.6V7.94h3.1l.32 1.35a8.81 8.81 0 011.95-1.17c.73-.33 1.55-.49 2.47-.49 1.05 0 2 .25 2.83.75.83.49 1.48 1.2 1.95 2.13.48.92.72 2.03.72 3.33 0 1.28-.27 2.37-.8 3.27a5.26 5.26 0 01-2.21 2.05c-.93.47-2 .7-3.22.7zm-.73-2.85a3.36 3.36 0 002.8-1.48c.32-.49.47-1.03.47-1.64 0-.97-.29-1.74-.88-2.31a2.9 2.9 0 00-2.13-.89 3.16 3.16 0 00-3.01 1.71v2.79c.19.55.53 1 1.01 1.32.5.33 1.08.5 1.74.5zM113.35 19.86c-.64 0-1.28-.1-1.92-.33a4.53 4.53 0 01-1.59-1.02v6.5h-3.6V7.94h3.1l.32 1.35a8.82 8.82 0 011.95-1.17c.73-.33 1.55-.49 2.47-.49 1.05 0 2 .25 2.83.75.83.49 1.48 1.2 1.95 2.13.48.92.72 2.03.72 3.33 0 1.28-.27 2.37-.8 3.27a5.25 5.25 0 01-2.21 2.05c-.94.47-2 .7-3.22.7zm-.73-2.85a3.36 3.36 0 002.8-1.48c.32-.49.47-1.03.47-1.64 0-.97-.29-1.74-.88-2.31a2.9 2.9 0 00-2.13-.89 3.16 3.16 0 00-3.01 1.71v2.79c.19.55.53 1 1.01 1.32.5.33 1.08.5 1.74.5zM122.97 25l2.73-6.04-5.25-10.76h4.08l2.98 6.7 3.02-6.7h3.27L126.48 25h-3.51z" fill="#F9784B"/><path d="M3.28 27.5s6.12 4.17 7.3 4.04c1.17-.12 4.27-3.36 4.45-2.93.22.53 2.13 5.6 2.67 5.25.42-.29 2.55-2.02 3.56-2.85" stroke="#F9784B" stroke-width="1.68"/><path d="M31 25.8c.86-1.31 2.5-3.96 2.18-4-.4-.04-5.56-.71-5.16-.98.32-.21 2.98-3.88 4.27-5.7" stroke="#3AB8EB" stroke-width="1.68"/><circle cx="27.04" cy="9.7" r="1.47" fill="#F9784B"/><circle cx="10.35" cy="23" r="1.47" fill="#3AB8EB"/><path d="M3.84 14.8l1.2 1.85h2.2l-1.4 1.71.68 2.1-2.05-.8-1.79 1.3.12-2.2-1.78-1.3 2.13-.57.69-2.1z" fill="#F9784B"/><path d="M17.76 2.42l1.92 1.08 1.95-1.02-.43 2.16 1.57 1.53-2.19.26-.97 1.97-.92-2-2.18-.32 1.62-1.49-.37-2.17z" fill="#3AB8EB"/><path d="M8.26 4.94c1.96 1.38 6.76 6.8 3.83 8.4-3.16 1.75-7.56-5.4-1.38-4.75 6.4.66 10.59 7.7 7.88 11.92-2.68 4.17-9.21-6-1.47-4.23a8.03 8.03 0 016.54 9.4" stroke="#FCC00E" stroke-width="1.68"/><g clip-path="url(#clip0)"><path d="M37.66 38.18l-3.76.67 2.84 4.46c.2.31.1.72-.18.91l-1.6 1.08c-.3.2-.7.1-.9-.2l-2.7-4.24-2.5 3.71c-.33.5-1.05.29-1.15-.26L24.98 29.1c-.1-.58.55-1 1-.65L37.9 37c.48.32.3 1.08-.24 1.18z" fill="#F2F2F2"/></g><defs><clipPath id="clip0"><path fill="#fff" transform="rotate(-10.18 173.93 -106.05)" d="M0 0h18.42v18.42H0z"/></clipPath></defs></svg>